<?xml version="1.0" encoding="utf-8"?>
<!-- Generator: Adobe Illustrator 22.0.1, SVG Export Plug-In . SVG Version: 6.00 Build 0)  -->
<svg version="1.1" id="Layer_1" xmlns="http://www.w3.org/2000/svg" xmlns:xlink="http://www.w3.org/1999/xlink" x="0px" y="0px"
	 viewBox="0 0 1280 1024" style="enable-background:new 0 0 1280 1024;" xml:space="preserve">
<style type="text/css">
	.st0{opacity:0.26;fill:#35B6BF;}
	.st1{fill:#FFFFFF;}
	.st2{fill:#F7E246;}
	.st3{fill:#FF785A;}
	.st4{fill:#35B6BF;}
	.st5{fill:none;stroke:#35B6BF;stroke-width:0.5;stroke-miterlimit:10;}
	.st6{fill:#4A7172;}
</style>
<g>
	<g>
		<path d="M0,766.2c99.8-9.6,198.9-26.5,296.2-50.7c41.4-10.3,83.6-22.8,117.5-49.9c30.7-24.6,52.6-59.6,56.9-99.1
			c2.5-23-0.5-46.3-6.1-68.6c-5.1-20.2-11.9-40.7-21.5-59.3c-7.6-14.5-18-29.9-33.6-36.7c-14.5-6.4-30-2.6-42.2,6.8
			c-15.2,11.8-25.4,29.4-33.6,46.5c-9.7,20.1-17.9,40.8-24.8,62c-14.1,43.4-22.8,88.4-27.7,133.8c-4.5,41.9-7.5,85-2.7,127
			c3.7,32.8,12.3,67.9,34.9,93.1c27.2,30.3,68.7,33.3,106,22.6c40.6-11.7,75.6-37.2,106.9-64.7c66.4-58.5,124.9-126.7,180.2-195.6
			c55.9-69.6,108.6-141.7,162.1-213.3c54.1-72.4,108.9-144.3,168.6-212.1c14.7-16.7,29.7-33.2,45.1-49.3
			c15.7-16.5,32-32.8,50.4-46.2c32-23.3,72.6-36.3,110.1-17.7c16.5,8.2,29.3,21.8,36.4,38.8c0.4,0.9,1.8,0.5,1.4-0.4
			c-12.2-29.2-40.5-46.9-71.7-48.8c-37.7-2.4-71.2,19.9-98.1,44c-32,28.7-60.5,61.8-88.5,94.4c-28.4,32.9-55.7,66.7-82.4,101
			c-53.4,68.5-104.4,138.7-156.6,208c-52.6,69.8-106.6,138.8-165.6,203.5c-28.7,31.4-58.3,62.2-90.1,90.5
			c-32,28.5-67.9,55.1-109.7,66.8c-21.4,6-44.6,8.2-66.2,1.6c-18.4-5.6-33.8-17.8-44.8-33.5c-20.7-29.6-26.9-67.9-28.8-103.2
			c-2.3-42.9,1.3-86.7,7.2-129.2c6.1-44.6,16.3-88.7,31.9-130.9c7.6-20.5,16.1-41.3,27.6-60c9.9-16.2,24.5-34.4,44.6-36.9
			c20.5-2.5,36.2,12.9,46.3,28.9c11.3,17.9,18.4,38.5,24.3,58.7c12.9,44.4,14.8,91.9-9.4,132.9c-21.7,36.8-57.8,61.1-97.1,75.9
			c-43.4,16.4-90.2,25.5-135.5,34.8c-48.6,10.1-97.6,18.4-146.8,24.9c-23.8,3.1-47.6,5.8-71.5,8.1C-1,764.8-1,766.3,0,766.2L0,766.2
			z"/>
	</g>
</g>
</svg>
