<?xml version="1.0" encoding="utf-8"?>
<!-- Generator: Adobe Illustrator 22.0.1, SVG Export Plug-In . SVG Version: 6.00 Build 0)  -->
<svg version="1.1" id="Layer_1" xmlns="http://www.w3.org/2000/svg" xmlns:xlink="http://www.w3.org/1999/xlink" x="0px" y="0px"
	 viewBox="0 0 1280 1024" style="enable-background:new 0 0 1280 1024;" xml:space="preserve">
<style type="text/css">
	.st0{opacity:0.26;fill:#35B6BF;}
	.st1{fill:#FFFFFF;}
	.st2{fill:#F7E246;}
	.st3{fill:#FF785A;}
	.st4{fill:#35B6BF;}
	.st5{fill:none;stroke:#35B6BF;stroke-width:0.5;stroke-miterlimit:10;}
	.st6{fill:#4A7172;}
</style>
<g>
	<g>
		<path class="st2" d="M-44.1,621.7c100.8,12.4,202.6,17.4,304.1,14.6c43.6-1.2,88.5-5.2,127.5-26.2c33.8-18.2,60.8-47.6,72.6-84.4
			c12.4-38.9,10.4-84,1.2-123.4c-3.6-15.7-9.4-32.4-20.9-44.1c-11.4-11.5-27.6-15-42.9-9.8c-18.9,6.5-34,22-46.2,37.2
			c-13.4,16.6-25.6,34.2-36.7,52.4c-22.7,37.2-40.8,77.1-55.5,118.2c-14.4,40-27.1,81.7-33.2,123.9c-5,34.4-6.1,72.3,8.8,104.5
			c16.2,35,50.7,51.8,88.1,52.8c44.2,1.2,86.8-15.6,125.2-35.9c40-21.2,78.1-46.5,115.2-72.4c35.8-25.1,70.7-51.5,104.9-78.7
			c70.2-55.9,137.7-115.1,205.7-173.7c68.6-59.1,137.8-117.7,210.8-171.4c35.9-26.4,72.8-54.6,113.3-73.7
			c37.4-17.6,82.4-23.7,116.5,4.3c14.1,11.5,23.3,27.3,26.5,45.2c0.3,1.9,3.2,1.1,2.9-0.8c-5.8-32.1-31-56-62-64.2
			c-37.7-9.9-76.3,6.3-108.4,25.1c-37.6,22-72.9,48.3-107.7,74.4c-33.9,25.4-67,51.9-99.6,78.9c-67.4,55.7-132.9,113.7-199.4,170.5
			c-66.2,56.4-133.6,111.7-205,161.6c-35.4,24.7-71.6,48.8-109.6,69.4c-39.5,21.5-83.5,39.8-129.3,38.5
			c-21.1-0.6-42.7-5.8-59.8-18.6c-14.7-11-24.7-27.1-30.3-44.4c-11.6-35.9-7.5-76-0.1-112.3c8.3-40.9,21-81.3,36.1-120.2
			c15.7-40.6,35.1-80,59.2-116.3c12.1-18.2,25-36.6,40.8-51.7c15.2-14.5,37.7-29,59-18.3c15.7,7.9,23.7,25.8,28.3,41.8
			c5.6,19.4,7.8,39.9,8.8,60c2.1,43.8-6.7,87.8-37.2,120.9c-28.4,30.9-67.7,47-108.5,53.3c-23.5,3.6-47.4,4.4-71.1,4.9
			c-24.7,0.5-49.4,0.6-74.1,0.2c-48.8-0.8-97.6-3.3-146.2-7.5c-24-2.1-48-4.6-72-7.6C-46,618.5-46,621.5-44.1,621.7L-44.1,621.7z"/>
	</g>
</g>
</svg>
